<svg xmlns="http://www.w3.org/2000/svg" width="1080" height="420" viewBox="0 0 1080 420">
  <rect width="1080" height="420" fill="#ffffff"/>
  <text x="44" y="54" font-family="Arial, sans-serif" font-size="27" font-weight="700" fill="#111111">Photo-informed validation estimate summary</text>
  <text x="44" y="86" font-family="Arial, sans-serif" font-size="15" fill="#333333">Simulated estimates from prototype photos and engineering assumptions; not final measured data.</text>
  <text x="48" y="112" font-family="Arial, sans-serif" font-size="15" font-weight="700" fill="#111111">Estimated peak voltage</text>
  <text x="48" y="141" font-family="Arial, sans-serif" font-size="12" fill="#333333">open circuit voltage / normal</text><rect x="250" y="124" width="39" height="20" fill="#111111"/><text x="299" y="140" font-family="Arial, sans-serif" font-size="12" fill="#111111">3.5 V</text><text x="48" y="173" font-family="Arial, sans-serif" font-size="12" fill="#333333">open circuit voltage / light</text><rect x="250" y="156" width="83" height="20" fill="#111111"/><text x="343" y="172" font-family="Arial, sans-serif" font-size="12" fill="#111111">7.2 V</text><text x="48" y="205" font-family="Arial, sans-serif" font-size="12" fill="#333333">open circuit voltage / normal</text><rect x="250" y="188" width="171" height="20" fill="#111111"/><text x="431" y="204" font-family="Arial, sans-serif" font-size="12" fill="#111111">14.8 V</text><text x="48" y="237" font-family="Arial, sans-serif" font-size="12" fill="#333333">open circuit voltage / strong</text><rect x="250" y="220" width="260" height="20" fill="#111111"/><text x="520" y="236" font-family="Arial, sans-serif" font-size="12" fill="#111111">22.5 V</text><text x="48" y="269" font-family="Arial, sans-serif" font-size="12" fill="#333333">rectified voltage / light</text><rect x="250" y="252" width="55" height="20" fill="#111111"/><text x="315" y="268" font-family="Arial, sans-serif" font-size="12" fill="#111111">4.8 V</text><text x="48" y="301" font-family="Arial, sans-serif" font-size="12" fill="#333333">rectified voltage / normal</text><rect x="250" y="284" width="121" height="20" fill="#111111"/><text x="381" y="300" font-family="Arial, sans-serif" font-size="12" fill="#111111">10.5 V</text>
  <text x="560" y="112" font-family="Arial, sans-serif" font-size="15" font-weight="700" fill="#111111">Estimated energy cases</text>
  <text x="560" y="141" font-family="Arial, sans-serif" font-size="12" fill="#333333">capacitor charging / normal</text><rect x="760" y="124" width="31" height="20" fill="#111111"/><text x="801" y="140" font-family="Arial, sans-serif" font-size="12" fill="#111111">13.52 mJ</text><text x="560" y="173" font-family="Arial, sans-serif" font-size="12" fill="#333333">capacitor charging / strong</text><rect x="760" y="156" width="87" height="20" fill="#111111"/><text x="857" y="172" font-family="Arial, sans-serif" font-size="12" fill="#111111">37.84 mJ</text><text x="560" y="205" font-family="Arial, sans-serif" font-size="12" fill="#333333">capacitor charging / mixed</text><rect x="760" y="188" width="260" height="20" fill="#111111"/><text x="1030" y="204" font-family="Arial, sans-serif" font-size="12" fill="#111111">112.50 mJ</text><text x="560" y="237" font-family="Arial, sans-serif" font-size="12" fill="#333333">load resistor test / normal</text><rect x="760" y="220" width="0" height="20" fill="#111111"/><text x="770" y="236" font-family="Arial, sans-serif" font-size="12" fill="#111111">0.02 mJ</text><text x="560" y="269" font-family="Arial, sans-serif" font-size="12" fill="#333333">load resistor test / normal</text><rect x="760" y="252" width="0" height="20" fill="#111111"/><text x="770" y="268" font-family="Arial, sans-serif" font-size="12" fill="#111111">0.20 mJ</text><text x="560" y="301" font-family="Arial, sans-serif" font-size="12" fill="#333333">load resistor test / normal</text><rect x="760" y="284" width="0" height="20" fill="#111111"/><text x="770" y="300" font-family="Arial, sans-serif" font-size="12" fill="#111111">0.25 mJ</text>
  <text x="44" y="384" font-family="Arial, sans-serif" font-size="14" fill="#444444">Rows are labeled simulated_photo_informed in data/photo_informed_validation_estimates.csv.</text>
</svg>
